<svg xmlns="http://www.w3.org/2000/svg" viewBox="0 0 256 256"><path d="M195.072 85.50399999999999 157.44 76.54400000000001C157.184 80.12799999999999 156.416 85.75999999999999 155.392 91.136H153.856C141.824 91.136 129.536 92.416 118.272 94.72L119.808 76.28800000000001C151.552 75.00800000000001 185.856 71.68 209.92000000000002 67.328L209.66400000000002 31.744C180.736 38.912000000000006 154.88 41.98400000000001 124.672 43.00800000000001L126.72 32.256C127.744 27.903999999999996 128.768 23.295999999999992 130.56 17.407999999999987L90.624 16.383999999999986C90.88 21.50399999999999 90.368 28.415999999999997 89.85600000000001 33.536L88.57600000000001 43.77600000000001H82.432C64.256 43.77600000000001 41.728 41.47200000000001 32.512 40.19200000000001L33.536 75.52000000000001C46.336 76.03200000000001 66.304 77.31200000000001 81.152 77.31200000000001H85.248C84.224 86.78399999999999 83.456 96.512 82.944 106.24C46.848 123.648 20.736 158.208 20.736 191.232C20.736 219.648 37.888 231.424 57.6 231.424C70.656 231.424 83.712 227.84 95.232 222.72L98.048 231.424L133.632 220.928L128.0 202.752C146.43200000000002 187.648 166.4 161.792 179.96800000000002 128.256C193.792 134.656 200.96 146.176 200.96 159.232C200.96 179.96800000000002 185.6 205.568 134.4 211.2L154.88 243.712C219.648 233.984 239.36 197.12 239.36 161.024C239.36 130.56 219.648 107.776 190.72 97.28ZM145.40800000000002 122.624C138.24 139.00799999999998 129.28 151.552 119.552 162.048C118.272 151.552 117.504 140.03199999999998 117.248 127.232C125.44 124.928 134.656 123.136 145.40800000000002 122.624ZM87.552 187.648C80.128 191.744 72.96000000000001 193.792 67.328 193.792C59.648 193.792 57.088 189.952 57.088 182.784C57.088 171.776 66.816 155.648 82.688 143.61599999999999C83.456 158.976 85.248 174.07999999999998 87.552 187.648Z"/></svg>